<svg width="64" height="64" viewBox="0 0 64 64" fill="none" xmlns="http://www.w3.org/2000/svg">
<path d="M32.001 1.51367C19.022 1.51367 8.5 12.1747 8.5 25.3237C8.5 43.0297 27.294 62.4857 32.001 62.4857C36.708 62.4857 55.5 43.0297 55.5 25.3237C55.5 12.1747 44.979 1.51367 32.001 1.51367ZM32.001 39.8507C24.126 39.8507 17.743 33.3827 17.743 25.4047C17.743 22.2417 18.747 19.3167 20.45 16.9387C20.633 19.9947 23.129 22.4177 26.191 22.4177C29.371 22.4177 31.948 19.8067 31.948 16.5817C31.9511 15.4947 31.6504 14.4286 31.0798 13.5034C30.5093 12.5782 29.6916 11.8309 28.719 11.3457C29.794 11.0879 30.8955 10.957 32.001 10.9557C39.875 10.9557 46.259 17.4267 46.259 25.4047C46.259 33.3827 39.875 39.8507 32.001 39.8507Z" fill="white"/>
<path d="M33.5534 1.57129C33.9094 4.44729 34.1444 7.66729 34.2994 11.1603C41.0794 12.2773 46.2614 18.2193 46.2614 25.4043C46.2614 32.5013 41.2054 38.3913 34.5474 39.6083C34.3364 47.9753 33.3804 55.7643 31.8594 62.4683C31.9064 62.4723 31.9594 62.4863 32.0034 62.4863C36.7104 62.4863 55.5024 43.0303 55.5024 25.3243C55.5024 12.7023 45.8104 2.38129 33.5534 1.57129Z" fill="#B4EDFF"/>
<path d="M26.3168 20.0037C28.2134 20.0037 29.7508 18.4663 29.7508 16.5697C29.7508 14.6732 28.2134 13.1357 26.3168 13.1357C24.4203 13.1357 22.8828 14.6732 22.8828 16.5697C22.8828 18.4663 24.4203 20.0037 26.3168 20.0037Z" fill="#B4EDFF"/>
<path d="M24.2897 18.1371C25.5716 18.1371 26.6108 17.098 26.6108 15.8161C26.6108 14.5343 25.5716 13.4951 24.2897 13.4951C23.0079 13.4951 21.9688 14.5343 21.9688 15.8161C21.9688 17.098 23.0079 18.1371 24.2897 18.1371Z" fill="#2C9AFF"/>
<path d="M28.4796 20.2034C28.874 20.2034 29.1936 19.8837 29.1936 19.4894C29.1936 19.0951 28.874 18.7754 28.4796 18.7754C28.0853 18.7754 27.7656 19.0951 27.7656 19.4894C27.7656 19.8837 28.0853 20.2034 28.4796 20.2034Z" fill="#2C9AFF"/>
<path d="M29.2348 17.7429C29.5197 17.7429 29.7507 17.5119 29.7507 17.2269C29.7507 16.942 29.5197 16.7109 29.2348 16.7109C28.9498 16.7109 28.7188 16.942 28.7188 17.2269C28.7188 17.5119 28.9498 17.7429 29.2348 17.7429Z" fill="#2C9AFF"/>
<path d="M45.7549 29.1631C44.1199 35.3161 38.5889 39.8511 32.0009 39.8511C25.6819 39.8511 20.3299 35.6811 18.4609 29.9131C19.0869 38.5321 24.9469 45.2891 32.0919 45.2891C39.4419 45.2881 45.4219 38.1341 45.7549 29.1631Z" fill="#B4EDFF"/>
<path d="M32.001 3.57767C44.595 3.57767 54.87 13.6147 55.471 26.2217C55.481 25.9217 55.5 25.6227 55.5 25.3247C55.5 12.1757 44.979 1.51367 32.001 1.51367C19.023 1.51367 8.5 12.1747 8.5 25.3237C8.5 25.6227 8.52 25.9217 8.529 26.2207C9.13 13.6147 19.409 3.57767 32.001 3.57767Z" fill="#20CBF9"/>
</svg>
